<svg width="32" height="27" fill="none" xmlns="http://www.w3.org/2000/svg">
    <path d="M15.596 26.158H1.288a.327.327 0 0 1-.228-.093.334.334 0 0 1-.1-.227V12.43a.35.35 0 0 1 .09-.231l8.313-8.19a.34.34 0 0 1 .168-.098L25.8.35a.325.325 0 0 1 .369.165.335.335 0 0 1-.067.402L16.037 9.746a.329.329 0 0 0-.103.24v15.852a.334.334 0 0 1-.104.23.327.327 0 0 1-.234.09ZM30.929 13.887h-4.134a.591.591 0 0 0-.588.594v11.083c0 .328.263.594.588.594h4.134a.591.591 0 0 0 .588-.594V14.481a.591.591 0 0 0-.588-.594Z" fill="#D1ECFA"/>
</svg>
